<svg xmlns="http://www.w3.org/2000/svg" version="1.1" xmlns:xlink="http://www.w3.org/1999/xlink" xmlns:svgjs="http://svgjs.dev/svgjs" viewBox="0 0 18.732509462654864 6.595248228122172"><g transform="matrix(0.7575612218626055,0,0,0.7575612218626055,7.509055369962844,2.4878101069205067)"><g transform="matrix(1,0,0,1,0,0)" clip-path="url(#SvgjsClipPath17512)"><g clip-path="url(#SvgjsClipPath17510be72376e-fad0-4510-9fec-22af468891e7)"><path d=" M -1.598833588996614 0.7624564074909317 C -1.1458306253981334 0.3598559428347776 -1.4953051264009467 -0.38865520976766277 -2.094522568189552 -0.30055357993820686 L -2.4016852232991965 -0.9592517363725144 C -2.4232766552423617 -1.0071945295735885 -2.487094058065286 -1.0251362734468155 -2.5302707880220874 -0.9946445097566236 L -5.238192121607732 0.846485108112927 L -5.70781190030111 1.0654663923092356 C -5.839132607497786 1.12689420872967 -5.895937121995141 1.2830380191112907 -5.834784241557792 1.4144869825268809 L -5.316847499962053 2.525255745271214 C -5.258802124826208 2.6549147476617345 -5.0957929475848385 2.7145120069684947 -4.967777838308173 2.6523384972594246 L -4.498108988178561 2.433283605908765 L -3.893886259894041 2.2624414006584685 L -3.5108714322249686 3.083774564632858 C -3.445980681488337 3.2226293264027825 -3.306532534363824 3.311326002074672 -3.153263340666291 3.3112329394386704 C -2.870568930449057 3.314913297156255 -2.6734121675180273 3.0065361239998065 -2.7967593564228896 2.750769664416236 L -3.125789470304519 2.0452450899551886 L -1.3472013979157964 1.5423610114243727 C -1.322514867567815 1.5353495247955147 -1.3021433749859108 1.5178675353565856 -1.2914661209179243 1.4945312552130794 C -1.280788866849937 1.4711949750695732 -1.280879420754947 1.4443508050368141 -1.2917138713936724 1.4210870907004165 Z M -3.061346406669606 3.115677132114791 C -3.16658010167442 3.1674843009193294 -3.304863408983148 3.117192212708529 -3.352192809231291 3.0097871066503403 L -3.723068590361862 2.2143943306553964 L -3.2963679165850555 2.0937644725320177 L -2.9554195776279797 2.824769390257812 C -2.904498459904731 2.934359143771399 -2.951881622323828 3.0644879214011445 -3.061346406669606 3.11567713211479 Z M -1.6086294744549186 0.11992115536635173 C -1.5343848077044644 0.2775944342771359 -1.5613238764549067 0.4643507410458543 -1.6771025297905888 0.5946136937804671 L -2.016241359536518 -0.13266792872103705 C -1.8421583216882444 -0.1372862465246243 -1.6819751816244901 -0.038023898894976815 -1.6086294744549186 0.11992115536635173 Z M -5.041789832008808 2.493666008195276 C -5.085632299875418 2.513794808879504 -5.137509169695605 2.4949053819277385 -5.158144341250258 2.451298956936344 L -5.676093350705056 1.3405179263329519 C -5.696510015411399 1.2966865083031935 -5.677570839919081 1.2446010308912765 -5.633769236952828 1.224120479584796 L -5.2370021392790465 1.0391825042761487 C -5.222476994153644 1.0703244644964474 -4.681090239967359 2.231544797619342 -4.645120877207495 2.308685095379924 Z M -4.4808665122716755 2.2464686481641496 C -4.6311477857397305 1.9241490531875831 -4.933599582970867 1.2755228090404005 -5.083831785002687 0.9532829551477153 L -2.5167822769871395 -0.7919856120378042 C -2.2190597394230993 -0.15348648554350897 -1.7915064494417186 0.763425568356563 -1.4937655100890916 1.401875623414624 Z" fill="url(#gradient-fe43ab70-76c8-4ea7-a285-28492401c29a_0)" transform="matrix(1,0,0,1,0,0)" fill-rule="nonzero"></path></g><g clip-path="url(#SvgjsClipPath17510be72376e-fad0-4510-9fec-22af468891e7)"><path d=" M -0.6565822722109687 -0.324046530035458 C -0.6663854851239011 -0.3451010924537623 -0.684158577635646 -0.3613933448551805 -0.7059844119535752 -0.36933252229171987 C -0.7278102462715053 -0.377271699728259 -0.7518972729303348 -0.37620612360271033 -0.7729367814524197 -0.3663706437876859 L -1.2489726504334522 -0.14438373412201622 C -1.292790542235231 -0.1239289480306216 -1.3117300815237227 -0.07182564792899249 -1.2912752954323272 -0.02800775612721318 C -1.2708205093409335 0.015810135674565906 -1.218717209239304 0.034749674963056476 -1.174899317437525 0.01429488887166186 L -0.6988695823860205 -0.20769202079400761 C -0.6550794790239127 -0.22816124474601895 -0.6361530500800336 -0.28023775049543287 -0.6565822722109687 -0.32404653003545814 Z" fill="url(#gradient-fe43ab70-76c8-4ea7-a285-28492401c29a_1)" transform="matrix(1,0,0,1,0,0)" fill-rule="nonzero"></path></g><g clip-path="url(#SvgjsClipPath17510be72376e-fad0-4510-9fec-22af468891e7)"><path d=" M -1.549210099104509 -0.6225910141564251 C -1.5065588454573708 -0.5998324784521082 -1.4535340033258057 -0.6158966209681865 -1.4306841788096838 -0.6584990376209962 L -1.224332655514221 -1.0445133568299005 C -1.2015285163002059 -1.087150643637832 -1.2176064591356255 -1.1402014012982995 -1.2602437459435567 -1.1630055405123145 C -1.302881032751488 -1.1858096797263293 -1.3559317904119546 -1.1697317368909104 -1.3787359296259707 -1.127094450082979 L -1.5851181225690798 -0.7410862648036038 C -1.596083749347759 -0.7206138426997182 -1.5984607571015372 -0.6966218583461071 -1.5917254936730725 -0.6743957191402501 C -1.5849902302446068 -0.6521695799343933 -1.5696952784470088 -0.6335327902807386 -1.54921009910451 -0.6225910141564249 Z" fill="url(#gradient-fe43ab70-76c8-4ea7-a285-28492401c29a_2)" transform="matrix(1,0,0,1,0,0)" fill-rule="nonzero"></path></g><g clip-path="url(#SvgjsClipPath17510be72376e-fad0-4510-9fec-22af468891e7)"><path d=" M -0.46949742156706353 0.5741079673639893 L -0.897921729541606 0.48406188187374255 C -1.0123808545584998 0.4646970663497161 -1.0467308599226266 0.6268658952455703 -0.9339953691034681 0.6553886675568541 L -0.5055894629175137 0.745459288765218 C -0.45827210208088776 0.7554258307792763 -0.41183432355573224 0.7251470095764556 -0.40186778154167424 0.6778296487398288 C -0.39190123952761535 0.6305122879032021 -0.4221800607304367 0.5840745093780471 -0.46949742156706353 0.5741079673639893 Z" fill="url(#gradient-fe43ab70-76c8-4ea7-a285-28492401c29a_3)" transform="matrix(1,0,0,1,0,0)" fill-rule="nonzero"></path></g></g><g><path d=" M 0.183 0.00749999999999984 L 0.2595 0.00749999999999984 L 0.2595 1.0574999999999999 L 0.183 1.0574999999999999 L 0.183 0.00749999999999984 M 1.480474365234375 0.00749999999999984 L 1.480474365234375 1.0574999999999999 L 1.417474365234375 1.0574999999999999 L 0.7019743652343751 0.14549999999999985 L 0.7019743652343751 1.0574999999999999 L 0.625474365234375 1.0574999999999999 L 0.625474365234375 0.00749999999999984 L 0.689974365234375 0.00749999999999984 L 1.403974365234375 0.9194999999999999 L 1.403974365234375 0.00749999999999984 L 1.480474365234375 0.00749999999999984 M 2.04751318359375 0.0764999999999999 L 1.66951318359375 0.0764999999999999 L 1.66951318359375 0.00749999999999984 L 2.50201318359375 0.00749999999999984 L 2.50201318359375 0.0764999999999999 L 2.12401318359375 0.0764999999999999 L 2.12401318359375 1.0574999999999999 L 2.04751318359375 1.0574999999999999 L 2.04751318359375 0.0764999999999999 M 3.4154956054687498 0.9884999999999999 L 3.4154956054687498 1.0574999999999999 L 2.69099560546875 1.0574999999999999 L 2.69099560546875 0.00749999999999984 L 3.39299560546875 0.00749999999999984 L 3.39299560546875 0.0764999999999999 L 2.76749560546875 0.0764999999999999 L 2.76749560546875 0.4904999999999998 L 3.32699560546875 0.4904999999999998 L 3.32699560546875 0.5579999999999998 L 2.76749560546875 0.5579999999999998 L 2.76749560546875 0.9884999999999999 L 3.4154956054687498 0.9884999999999999 M 4.423505126953125 1.0574999999999999 L 4.173005126953125 0.7064999999999999 Q 4.117505126953125 0.7139999999999999 4.071005126953125 0.7139999999999999 L 3.771005126953125 0.7139999999999999 L 3.771005126953125 1.0574999999999999 L 3.694505126953125 1.0574999999999999 L 3.694505126953125 0.00749999999999984 L 4.071005126953125 0.00749999999999984 Q 4.269005126953125 0.00749999999999984 4.381505126953125 0.10124999999999984 Q 4.494005126953125 0.19499999999999984 4.494005126953125 0.3614999999999998 Q 4.494005126953125 0.4859999999999999 4.430255126953125 0.5707499999999999 Q 4.366505126953125 0.6554999999999999 4.248005126953125 0.69 L 4.510505126953125 1.0574999999999999 L 4.423505126953125 1.0574999999999999 M 4.071005126953125 0.6464999999999999 Q 4.239005126953125 0.6464999999999999 4.327505126953125 0.5722499999999999 Q 4.416005126953125 0.4979999999999999 4.416005126953125 0.3614999999999998 Q 4.416005126953125 0.22499999999999987 4.327505126953125 0.15074999999999983 Q 4.239005126953125 0.0764999999999999 4.071005126953125 0.0764999999999999 L 3.771005126953125 0.0764999999999999 L 3.771005126953125 0.6464999999999999 L 4.071005126953125 0.6464999999999999 M 5.612961181640625 0.00749999999999984 L 5.144961181640625 1.0574999999999999 L 5.068461181640625 1.0574999999999999 L 4.600461181640625 0.00749999999999984 L 4.684461181640625 0.00749999999999984 L 5.108961181640625 0.9584999999999999 L 5.533461181640625 0.00749999999999984 L 5.612961181640625 0.00749999999999984 M 5.782456787109375 0.00749999999999984 L 5.858956787109375 0.00749999999999984 L 5.858956787109375 1.0574999999999999 L 5.782456787109375 1.0574999999999999 L 5.782456787109375 0.00749999999999984 M 6.94943115234375 0.9884999999999999 L 6.94943115234375 1.0574999999999999 L 6.22493115234375 1.0574999999999999 L 6.22493115234375 0.00749999999999984 L 6.92693115234375 0.00749999999999984 L 6.92693115234375 0.0764999999999999 L 6.30143115234375 0.0764999999999999 L 6.30143115234375 0.4904999999999998 L 6.86093115234375 0.4904999999999998 L 6.86093115234375 0.5579999999999998 L 6.30143115234375 0.5579999999999998 L 6.30143115234375 0.9884999999999999 L 6.94943115234375 0.9884999999999999 M 8.617426025390625 0.00749999999999984 L 8.261926025390625 1.0574999999999999 L 8.180926025390626 1.0574999999999999 L 7.855426025390625 0.11549999999999983 L 7.528426025390625 1.0574999999999999 L 7.447426025390625 1.0574999999999999 L 7.090426025390625 0.00749999999999984 L 7.171426025390625 0.00749999999999984 L 7.490926025390625 0.9524999999999999 L 7.819426025390625 0.00749999999999984 L 7.892926025390625 0.00749999999999984 L 8.219926025390626 0.9539999999999998 L 8.542426025390625 0.00749999999999984 L 8.617426025390625 0.00749999999999984 M 9.24598828125 0.00749999999999984 L 9.32248828125 0.00749999999999984 L 9.32248828125 1.0574999999999999 L 9.24598828125 1.0574999999999999 L 9.24598828125 0.00749999999999984 M 10.726462646484375 1.1384999999999998 Q 10.679962646484375 1.1969999999999998 10.616962646484374 1.2269999999999999 Q 10.553962646484376 1.257 10.478962646484375 1.257 Q 10.391962646484375 1.257 10.310212646484375 1.212 Q 10.228462646484376 1.1669999999999998 10.130962646484376 1.065 Q 9.976462646484375 1.065 9.852712646484376 0.9952499999999999 Q 9.728962646484375 0.9254999999999999 9.658462646484375 0.8039999999999998 Q 9.587962646484375 0.6824999999999999 9.587962646484375 0.5324999999999999 Q 9.587962646484375 0.38249999999999984 9.659212646484375 0.2609999999999999 Q 9.730462646484375 0.13949999999999985 9.854962646484376 0.06974999999999987 Q 9.979462646484375 -2.220446049250313e-16 10.133962646484376 -2.220446049250313e-16 Q 10.288462646484374 -2.220446049250313e-16 10.412962646484376 0.06899999999999984 Q 10.537462646484375 0.1379999999999999 10.608712646484374 0.25949999999999984 Q 10.679962646484375 0.3809999999999999 10.679962646484375 0.5324999999999999 Q 10.679962646484375 0.6674999999999999 10.622212646484375 0.7792499999999999 Q 10.564462646484374 0.8909999999999999 10.462462646484376 0.9637499999999999 Q 10.360462646484375 1.0365 10.229962646484376 1.0574999999999999 Q 10.358962646484375 1.1925 10.478962646484375 1.1925 Q 10.600462646484376 1.1925 10.685962646484375 1.0919999999999999 L 10.726462646484375 1.1384999999999998 M 9.725962646484374 0.7672499999999999 Q 9.787462646484375 0.8729999999999999 9.894712646484376 0.9337499999999999 Q 10.001962646484374 0.9944999999999999 10.133962646484376 0.9944999999999999 Q 10.265962646484375 0.9944999999999999 10.372462646484376 0.9337499999999999 Q 10.478962646484375 0.8729999999999999 10.540462646484375 0.7672499999999999 Q 10.601962646484376 0.6614999999999999 10.601962646484376 0.5324999999999999 Q 10.601962646484376 0.40349999999999986 10.540462646484375 0.29774999999999985 Q 10.478962646484375 0.19199999999999984 10.372462646484376 0.13124999999999987 Q 10.265962646484375 0.0704999999999999 10.133962646484376 0.0704999999999999 Q 10.001962646484374 0.0704999999999999 9.894712646484376 0.13124999999999987 Q 9.787462646484375 0.19199999999999984 9.725962646484374 0.29774999999999985 Q 9.664462646484376 0.40349999999999986 9.664462646484376 0.5324999999999999 Q 9.664462646484376 0.6614999999999999 9.725962646484374 0.7672499999999999" fill="#173054" fill-rule="nonzero"></path></g><g><path d=" M 0.496125 1.911825 Q 0.52425 1.9452 0.52425 1.9977 Q 0.52425 2.0652 0.474375 2.101575 Q 0.4245 2.13795 0.327 2.13795 L 0.0855 2.13795 L 0.0855 1.61295 L 0.312 1.61295 Q 0.39975 1.61295 0.448125 1.6482 Q 0.4965 1.6834500000000001 0.4965 1.74795 Q 0.4965 1.79145 0.475125 1.821825 Q 0.45375 1.8522 0.41625 1.8672 Q 0.468 1.87845 0.496125 1.911825 M 0.14100000000000001 1.6587 L 0.14100000000000001 1.8492 L 0.30825 1.8492 Q 0.372 1.8492 0.40650000000000003 1.8248250000000001 Q 0.441 1.80045 0.441 1.7539500000000001 Q 0.441 1.7074500000000001 0.40650000000000003 1.683075 Q 0.372 1.6587 0.30825 1.6587 L 0.14100000000000001 1.6587 M 0.43275 2.0682 Q 0.46875 2.0442 0.46875 1.9932 Q 0.46875 1.8949500000000001 0.32625 1.8949500000000001 L 0.14100000000000001 1.8949500000000001 L 0.14100000000000001 2.0922 L 0.32625 2.0922 Q 0.39675 2.0922 0.43275 2.0682 M 0.705396240234375 2.08395 Q 0.6483962402343749 2.02545 0.6483962402343749 1.9137 L 0.6483962402343749 1.61295 L 0.7038962402343749 1.61295 L 0.7038962402343749 1.91145 Q 0.7038962402343749 2.0029500000000002 0.7451462402343749 2.04795 Q 0.7863962402343749 2.09295 0.864396240234375 2.09295 Q 0.943146240234375 2.09295 0.9843962402343749 2.04795 Q 1.025646240234375 2.0029500000000002 1.025646240234375 1.91145 L 1.025646240234375 1.61295 L 1.079646240234375 1.61295 L 1.079646240234375 1.9137 Q 1.079646240234375 2.02545 1.023021240234375 2.08395 Q 0.966396240234375 2.14245 0.864396240234375 2.14245 Q 0.7623962402343749 2.14245 0.705396240234375 2.08395 M 1.2487653808593748 1.61295 L 1.304265380859375 1.61295 L 1.304265380859375 2.13795 L 1.2487653808593748 2.13795 L 1.2487653808593748 1.61295 M 1.477141845703125 1.61295 L 1.532641845703125 1.61295 L 1.532641845703125 2.08995 L 1.826641845703125 2.08995 L 1.826641845703125 2.13795 L 1.477141845703125 2.13795 L 1.477141845703125 1.61295 M 1.9207587890624997 1.61295 L 2.1345087890625 1.61295 Q 2.2177587890624997 1.61295 2.2815087890625 1.646325 Q 2.3452587890625 1.6797 2.3805087890624996 1.739325 Q 2.4157587890625 1.79895 2.4157587890625 1.87545 Q 2.4157587890625 1.95195 2.3805087890624996 2.011575 Q 2.3452587890625 2.0712 2.2815087890625 2.104575 Q 2.2177587890624997 2.13795 2.1345087890625 2.13795 L 1.9207587890624997 2.13795 L 1.9207587890624997 1.61295 M 2.1315087890625 2.08995 Q 2.2005087890625 2.08995 2.2522587890624997 2.062575 Q 2.3040087890625 2.0352 2.3325087890625 1.986825 Q 2.3610087890625 1.93845 2.3610087890625 1.87545 Q 2.3610087890625 1.8124500000000001 2.3325087890625 1.764075 Q 2.3040087890625 1.7157 2.2522587890624997 1.688325 Q 2.2005087890625 1.66095 2.1315087890625 1.66095 L 1.9762587890624999 1.66095 L 1.9762587890624999 2.08995 L 2.1315087890625 2.08995 M 2.920518310546875 1.95645 L 2.920518310546875 2.13795 L 2.865768310546875 2.13795 L 2.865768310546875 1.95645 L 2.655768310546875 1.61295 L 2.715018310546875 1.61295 L 2.8950183105468748 1.9077 L 3.075018310546875 1.61295 L 3.130518310546875 1.61295 L 2.920518310546875 1.95645 M 3.284253662109375 2.107575 Q 3.2208786621093752 2.0727 3.185253662109375 2.01195 Q 3.149628662109375 1.9512 3.149628662109375 1.87545 Q 3.149628662109375 1.7997 3.185253662109375 1.73895 Q 3.2208786621093752 1.6782 3.284253662109375 1.643325 Q 3.347628662109375 1.60845 3.425628662109375 1.60845 Q 3.5036286621093753 1.60845 3.566253662109375 1.64295 Q 3.628878662109375 1.6774499999999999 3.664878662109375 1.738575 Q 3.700878662109375 1.7997 3.700878662109375 1.87545 Q 3.700878662109375 1.9512 3.664878662109375 2.012325 Q 3.628878662109375 2.0734500000000002 3.566253662109375 2.10795 Q 3.5036286621093753 2.14245 3.425628662109375 2.14245 Q 3.347628662109375 2.14245 3.284253662109375 2.107575 M 3.538128662109375 2.064825 Q 3.588378662109375 2.0367 3.616878662109375 1.986825 Q 3.6453786621093753 1.93695 3.6453786621093753 1.87545 Q 3.6453786621093753 1.81395 3.616878662109375 1.764075 Q 3.588378662109375 1.7142 3.538128662109375 1.686075 Q 3.487878662109375 1.65795 3.425628662109375 1.65795 Q 3.3633786621093753 1.65795 3.312753662109375 1.686075 Q 3.262128662109375 1.7142 3.2332536621093753 1.764075 Q 3.204378662109375 1.81395 3.204378662109375 1.87545 Q 3.204378662109375 1.93695 3.2332536621093753 1.986825 Q 3.262128662109375 2.0367 3.312753662109375 2.064825 Q 3.3633786621093753 2.09295 3.425628662109375 2.09295 Q 3.487878662109375 2.09295 3.538128662109375 2.064825 M 3.87974560546875 2.08395 Q 3.82274560546875 2.02545 3.82274560546875 1.9137 L 3.82274560546875 1.61295 L 3.87824560546875 1.61295 L 3.87824560546875 1.91145 Q 3.87824560546875 2.0029500000000002 3.91949560546875 2.04795 Q 3.96074560546875 2.09295 4.03874560546875 2.09295 Q 4.117495605468751 2.09295 4.15874560546875 2.04795 Q 4.19999560546875 2.0029500000000002 4.19999560546875 1.91145 L 4.19999560546875 1.61295 L 4.25399560546875 1.61295 L 4.25399560546875 1.9137 Q 4.25399560546875 2.02545 4.19737060546875 2.08395 Q 4.14074560546875 2.14245 4.03874560546875 2.14245 Q 3.93674560546875 2.14245 3.87974560546875 2.08395 M 4.78161474609375 2.13795 L 4.66161474609375 1.9692 Q 4.64136474609375 1.97145 4.61961474609375 1.97145 L 4.47861474609375 1.97145 L 4.47861474609375 2.13795 L 4.423114746093749 2.13795 L 4.423114746093749 1.61295 L 4.61961474609375 1.61295 Q 4.72011474609375 1.61295 4.7771147460937495 1.66095 Q 4.83411474609375 1.70895 4.83411474609375 1.79295 Q 4.83411474609375 1.85445 4.80298974609375 1.896825 Q 4.771864746093749 1.9392 4.71411474609375 1.95795 L 4.84236474609375 2.13795 L 4.78161474609375 2.13795 M 4.73736474609375 1.8897 Q 4.77861474609375 1.8552 4.77861474609375 1.79295 Q 4.77861474609375 1.7292 4.73736474609375 1.695075 Q 4.69611474609375 1.66095 4.61811474609375 1.66095 L 4.47861474609375 1.66095 L 4.47861474609375 1.9242 L 4.61811474609375 1.9242 Q 4.69611474609375 1.9242 4.73736474609375 1.8897 M 5.253024536132813 2.10795 Q 5.190399536132812 2.0734500000000002 5.154774536132813 2.012325 Q 5.119149536132812 1.9512 5.119149536132812 1.87545 Q 5.119149536132812 1.7997 5.154774536132813 1.738575 Q 5.190399536132812 1.6774499999999999 5.253399536132813 1.64295 Q 5.3163995361328125 1.60845 5.394399536132813 1.60845 Q 5.452899536132812 1.60845 5.502399536132812 1.62795 Q 5.5518995361328125 1.64745 5.586399536132812 1.68495 L 5.5511495361328125 1.7202 Q 5.489649536132813 1.65795 5.395899536132813 1.65795 Q 5.333649536132812 1.65795 5.282649536132812 1.68645 Q 5.231649536132813 1.71495 5.202774536132813 1.76445 Q 5.173899536132812 1.81395 5.173899536132812 1.87545 Q 5.173899536132812 1.93695 5.202774536132813 1.98645 Q 5.231649536132813 2.03595 5.282649536132812 2.06445 Q 5.333649536132812 2.09295 5.395899536132813 2.09295 Q 5.490399536132813 2.09295 5.5511495361328125 2.02995 L 5.586399536132812 2.0652 Q 5.5518995361328125 2.1027 5.502024536132812 2.122575 Q 5.452149536132812 2.14245 5.393649536132813 2.14245 Q 5.315649536132812 2.14245 5.253024536132813 2.10795 M 6.02251611328125 1.9977 L 5.73001611328125 1.9977 L 5.6670161132812495 2.13795 L 5.60926611328125 2.13795 L 5.84926611328125 1.61295 L 5.90401611328125 1.61295 L 6.14401611328125 2.13795 L 6.08551611328125 2.13795 L 6.02251611328125 1.9977 M 6.00226611328125 1.9527 L 5.87626611328125 1.6707 L 5.75026611328125 1.9527 L 6.00226611328125 1.9527 M 6.5913760986328125 2.13795 L 6.471376098632812 1.9692 Q 6.4511260986328125 1.97145 6.429376098632813 1.97145 L 6.2883760986328125 1.97145 L 6.2883760986328125 2.13795 L 6.232876098632812 2.13795 L 6.232876098632812 1.61295 L 6.429376098632813 1.61295 Q 6.529876098632813 1.61295 6.586876098632812 1.66095 Q 6.643876098632813 1.70895 6.643876098632813 1.79295 Q 6.643876098632813 1.85445 6.612751098632812 1.896825 Q 6.581626098632812 1.9392 6.523876098632813 1.95795 L 6.652126098632813 2.13795 L 6.5913760986328125 2.13795 M 6.547126098632813 1.8897 Q 6.588376098632812 1.8552 6.588376098632812 1.79295 Q 6.588376098632812 1.7292 6.547126098632813 1.695075 Q 6.505876098632813 1.66095 6.4278760986328125 1.66095 L 6.2883760986328125 1.66095 L 6.2883760986328125 1.9242 L 6.4278760986328125 1.9242 Q 6.505876098632813 1.9242 6.547126098632813 1.8897 M 7.148267944335938 2.08995 L 7.148267944335938 2.13795 L 6.777017944335937 2.13795 L 6.777017944335937 1.61295 L 7.137017944335938 1.61295 L 7.137017944335938 1.66095 L 6.832517944335938 1.66095 L 6.832517944335938 1.8477000000000001 L 7.104017944335937 1.8477000000000001 L 7.104017944335937 1.8949500000000001 L 6.832517944335938 1.8949500000000001 L 6.832517944335938 2.08995 L 7.148267944335938 2.08995 M 7.651897705078126 2.08995 L 7.651897705078126 2.13795 L 7.280647705078125 2.13795 L 7.280647705078125 1.61295 L 7.640647705078125 1.61295 L 7.640647705078125 1.66095 L 7.336147705078125 1.66095 L 7.336147705078125 1.8477000000000001 L 7.607647705078125 1.8477000000000001 L 7.607647705078125 1.8949500000000001 L 7.336147705078125 1.8949500000000001 L 7.336147705078125 2.08995 L 7.651897705078126 2.08995 M 8.142777465820313 2.13795 L 8.022777465820313 1.9692 Q 8.002527465820313 1.97145 7.980777465820313 1.97145 L 7.839777465820313 1.97145 L 7.839777465820313 2.13795 L 7.784277465820312 2.13795 L 7.784277465820312 1.61295 L 7.980777465820313 1.61295 Q 8.081277465820312 1.61295 8.138277465820313 1.66095 Q 8.195277465820313 1.70895 8.195277465820313 1.79295 Q 8.195277465820313 1.85445 8.164152465820314 1.896825 Q 8.133027465820312 1.9392 8.075277465820312 1.95795 L 8.203527465820313 2.13795 L 8.142777465820313 2.13795 M 8.098527465820313 1.8897 Q 8.139777465820313 1.8552 8.139777465820313 1.79295 Q 8.139777465820313 1.7292 8.098527465820313 1.695075 Q 8.057277465820313 1.66095 7.979277465820313 1.66095 L 7.839777465820313 1.66095 L 7.839777465820313 1.9242 L 7.979277465820313 1.9242 Q 8.057277465820313 1.9242 8.098527465820313 1.8897" fill="#225777" fill-rule="nonzero"></path></g></g><defs><clipPath id="SvgjsClipPath17512"><path d=" M -5.859381298970319 -1.173325876945376 h 5.459381298970318 v 4.484601753890752 h -5.459381298970318 Z"></path></clipPath><clipPath id="SvgjsClipPath17510be72376e-fad0-4510-9fec-22af468891e7"><path d=" M -5.859381298970319 -1.173325876945376 L -0.40000000000000036 -1.173325876945376 L -0.40000000000000036 3.311275876945376 L -5.859381298970319 3.311275876945376 Z"></path></clipPath><linearGradient id="gradient-fe43ab70-76c8-4ea7-a285-28492401c29a_0" x1="0" x2="1" y1="0" y2="1"><stop stop-color="#225677" offset="0"></stop><stop stop-color="#183357" offset="1"></stop></linearGradient><linearGradient id="gradient-fe43ab70-76c8-4ea7-a285-28492401c29a_1" x1="0" x2="1" y1="0" y2="1"><stop stop-color="#1c4365" offset="0"></stop><stop stop-color="#1b3f61" offset="1"></stop></linearGradient><linearGradient id="gradient-fe43ab70-76c8-4ea7-a285-28492401c29a_2" x1="0" x2="1" y1="0" y2="1"><stop stop-color="#1e4869" offset="0"></stop><stop stop-color="#1c4465" offset="1"></stop></linearGradient><linearGradient id="gradient-fe43ab70-76c8-4ea7-a285-28492401c29a_3" x1="0" x2="1" y1="0" y2="1"><stop stop-color="#1b3e61" offset="0"></stop><stop stop-color="#1a3b5e" offset="1"></stop></linearGradient></defs></svg>